<svg width="110" height="46" viewBox="0 0 177 46" fill="none" xmlns="http://www.w3.org/2000/svg">
<path d="M49.4245 23.224C47.7818 23.224 46.3098 22.9573 45.0085 22.424C43.7072 21.8907 42.6618 21.1013 41.8725 20.056C41.1045 19.0107 40.6992 17.752 40.6565 16.28H46.4805C46.5658 17.112 46.8538 17.752 47.3445 18.2C47.8352 18.6267 48.4752 18.84 49.2645 18.84C50.0752 18.84 50.7152 18.6587 51.1845 18.296C51.6538 17.912 51.8885 17.3893 51.8885 16.728C51.8885 16.1733 51.6965 15.7147 51.3125 15.352C50.9498 14.9893 50.4912 14.6907 49.9365 14.456C49.4032 14.2213 48.6352 13.9547 47.6325 13.656C46.1818 13.208 44.9978 12.76 44.0805 12.312C43.1632 11.864 42.3738 11.2027 41.7125 10.328C41.0512 9.45333 40.7205 8.312 40.7205 6.904C40.7205 4.81333 41.4778 3.18133 42.9925 2.008C44.5072 0.813333 46.4805 0.216 48.9125 0.216C51.3872 0.216 53.3818 0.813333 54.8965 2.008C56.4112 3.18133 57.2218 4.824 57.3285 6.936H51.4085C51.3658 6.21067 51.0992 5.64533 50.6085 5.24C50.1178 4.81333 49.4885 4.6 48.7205 4.6C48.0592 4.6 47.5258 4.78133 47.1205 5.144C46.7152 5.48533 46.5125 5.98667 46.5125 6.648C46.5125 7.37333 46.8538 7.93867 47.5365 8.344C48.2192 8.74933 49.2858 9.18667 50.7365 9.656C52.1872 10.1467 53.3605 10.616 54.2565 11.064C55.1738 11.512 55.9632 12.1627 56.6245 13.016C57.2858 13.8693 57.6165 14.968 57.6165 16.312C57.6165 17.592 57.2858 18.7547 56.6245 19.8C55.9845 20.8453 55.0458 21.6773 53.8085 22.296C52.5712 22.9147 51.1098 23.224 49.4245 23.224ZM78.616 5.144V23H73.144V20.568C72.5893 21.3573 71.832 21.9973 70.872 22.488C69.9333 22.9573 68.888 23.192 67.736 23.192C66.3707 23.192 65.1653 22.8933 64.12 22.296C63.0747 21.6773 62.264 20.792 61.688 19.64C61.112 18.488 60.824 17.1333 60.824 15.576V5.144H66.264V14.84C66.264 16.0347 66.5733 16.9627 67.192 17.624C67.8107 18.2853 68.6427 18.616 69.688 18.616C70.7547 18.616 71.5973 18.2853 72.216 17.624C72.8347 16.9627 73.144 16.0347 73.144 14.84V5.144H78.616ZM81.4585 14.04C81.4585 12.2053 81.7998 10.5947 82.4825 9.208C83.1865 7.82133 84.1358 6.75467 85.3305 6.008C86.5252 5.26133 87.8585 4.888 89.3305 4.888C90.5892 4.888 91.6878 5.144 92.6265 5.656C93.5865 6.168 94.3225 6.84 94.8345 7.672V5.144H100.307V23H94.8345V20.472C94.3012 21.304 93.5545 21.976 92.5945 22.488C91.6558 23 90.5572 23.256 89.2985 23.256C87.8478 23.256 86.5252 22.8827 85.3305 22.136C84.1358 21.368 83.1865 20.2907 82.4825 18.904C81.7998 17.496 81.4585 15.8747 81.4585 14.04ZM94.8345 14.072C94.8345 12.7067 94.4505 11.6293 93.6825 10.84C92.9358 10.0507 92.0185 9.656 90.9305 9.656C89.8425 9.656 88.9145 10.0507 88.1465 10.84C87.3998 11.608 87.0265 12.6747 87.0265 14.04C87.0265 15.4053 87.3998 16.4933 88.1465 17.304C88.9145 18.0933 89.8425 18.488 90.9305 18.488C92.0185 18.488 92.9358 18.0933 93.6825 17.304C94.4505 16.5147 94.8345 15.4373 94.8345 14.072ZM109.737 8.12C110.377 7.13867 111.177 6.37067 112.137 5.816C113.097 5.24 114.164 4.952 115.337 4.952V10.744H113.833C112.468 10.744 111.444 11.0427 110.761 11.64C110.079 12.216 109.737 13.24 109.737 14.712V23H104.265V5.144H109.737V8.12ZM116.865 14.04C116.865 12.2053 117.206 10.5947 117.889 9.208C118.593 7.82133 119.542 6.75467 120.737 6.008C121.931 5.26133 123.265 4.888 124.737 4.888C125.995 4.888 127.094 5.144 128.033 5.656C128.993 6.168 129.729 6.84 130.241 7.672V5.144H135.713V23H130.241V20.472C129.707 21.304 128.961 21.976 128.001 22.488C127.062 23 125.963 23.256 124.705 23.256C123.254 23.256 121.931 22.8827 120.737 22.136C119.542 21.368 118.593 20.2907 117.889 18.904C117.206 17.496 116.865 15.8747 116.865 14.04ZM130.241 14.072C130.241 12.7067 129.857 11.6293 129.089 10.84C128.342 10.0507 127.425 9.656 126.337 9.656C125.249 9.656 124.321 10.0507 123.553 10.84C122.806 11.608 122.433 12.6747 122.433 14.04C122.433 15.4053 122.806 16.4933 123.553 17.304C124.321 18.0933 125.249 18.488 126.337 18.488C127.425 18.488 128.342 18.0933 129.089 17.304C129.857 16.5147 130.241 15.4373 130.241 14.072ZM22.1425 45H16.6705L7.5185 31.144V45H2.0465V22.536H7.5185L16.6705 36.456V22.536H22.1425V45ZM43.741 27.144V45H38.269V42.568C37.7143 43.3573 36.957 43.9973 35.997 44.488C35.0583 44.9573 34.013 45.192 32.861 45.192C31.4957 45.192 30.2903 44.8933 29.245 44.296C28.1997 43.6773 27.389 42.792 26.813 41.64C26.237 40.488 25.949 39.1333 25.949 37.576V27.144H31.389V36.84C31.389 38.0347 31.6983 38.9627 32.317 39.624C32.9357 40.2853 33.7677 40.616 34.813 40.616C35.8797 40.616 36.7223 40.2853 37.341 39.624C37.9597 38.9627 38.269 38.0347 38.269 36.84V27.144H43.741ZM54.9355 45.256C53.3782 45.256 51.9915 44.9893 50.7755 44.456C49.5595 43.9227 48.5995 43.1973 47.8955 42.28C47.1915 41.3413 46.7968 40.296 46.7115 39.144H52.1195C52.1835 39.7627 52.4715 40.264 52.9835 40.648C53.4955 41.032 54.1248 41.224 54.8715 41.224C55.5542 41.224 56.0768 41.096 56.4395 40.84C56.8235 40.5627 57.0155 40.2107 57.0155 39.784C57.0155 39.272 56.7488 38.8987 56.2155 38.664C55.6822 38.408 54.8182 38.1307 53.6235 37.832C52.3435 37.5333 51.2768 37.224 50.4235 36.904C49.5702 36.5627 48.8342 36.04 48.2155 35.336C47.5968 34.6107 47.2875 33.64 47.2875 32.424C47.2875 31.4 47.5648 30.472 48.1195 29.64C48.6955 28.7867 49.5275 28.1147 50.6155 27.624C51.7248 27.1333 53.0368 26.888 54.5515 26.888C56.7915 26.888 58.5515 27.4427 59.8315 28.552C61.1328 29.6613 61.8795 31.1333 62.0715 32.968H57.0155C56.9302 32.3493 56.6528 31.8587 56.1835 31.496C55.7355 31.1333 55.1382 30.952 54.3915 30.952C53.7515 30.952 53.2608 31.08 52.9195 31.336C52.5782 31.5707 52.4075 31.9013 52.4075 32.328C52.4075 32.84 52.6742 33.224 53.2075 33.48C53.7622 33.736 54.6155 33.992 55.7675 34.248C57.0902 34.5893 58.1675 34.9307 58.9995 35.272C59.8315 35.592 60.5568 36.1253 61.1755 36.872C61.8155 37.5973 62.1462 38.5787 62.1675 39.816C62.1675 40.8613 61.8688 41.8 61.2715 42.632C60.6955 43.4427 59.8528 44.0827 58.7435 44.552C57.6555 45.0213 56.3862 45.256 54.9355 45.256ZM64.4273 36.04C64.4273 34.2053 64.7686 32.5947 65.4513 31.208C66.1553 29.8213 67.1046 28.7547 68.2993 28.008C69.4939 27.2613 70.8273 26.888 72.2993 26.888C73.5579 26.888 74.6566 27.144 75.5953 27.656C76.5553 28.168 77.2913 28.84 77.8033 29.672V27.144H83.2753V45H77.8033V42.472C77.2699 43.304 76.5233 43.976 75.5633 44.488C74.6246 45 73.5259 45.256 72.2673 45.256C70.8166 45.256 69.4939 44.8827 68.2993 44.136C67.1046 43.368 66.1553 42.2907 65.4513 40.904C64.7686 39.496 64.4273 37.8747 64.4273 36.04ZM77.8033 36.072C77.8033 34.7067 77.4193 33.6293 76.6513 32.84C75.9046 32.0507 74.9873 31.656 73.8993 31.656C72.8113 31.656 71.8833 32.0507 71.1153 32.84C70.3686 33.608 69.9953 34.6747 69.9953 36.04C69.9953 37.4053 70.3686 38.4933 71.1153 39.304C71.8833 40.0933 72.8113 40.488 73.8993 40.488C74.9873 40.488 75.9046 40.0933 76.6513 39.304C77.4193 38.5147 77.8033 37.4373 77.8033 36.072ZM98.114 26.952C100.205 26.952 101.869 27.6347 103.106 29C104.365 30.344 104.994 32.2 104.994 34.568V45H99.554V35.304C99.554 34.1093 99.2447 33.1813 98.626 32.52C98.0073 31.8587 97.1753 31.528 96.13 31.528C95.0847 31.528 94.2527 31.8587 93.634 32.52C93.0153 33.1813 92.706 34.1093 92.706 35.304V45H87.234V27.144H92.706V29.512C93.2607 28.7227 94.0073 28.104 94.946 27.656C95.8847 27.1867 96.9407 26.952 98.114 26.952ZM118.749 40.36V45H115.965C113.981 45 112.434 44.52 111.325 43.56C110.215 42.5787 109.661 40.9893 109.661 38.792V31.688H107.485V27.144H109.661V22.792H115.133V27.144H118.717V31.688H115.133V38.856C115.133 39.3893 115.261 39.7733 115.517 40.008C115.773 40.2427 116.199 40.36 116.797 40.36H118.749ZM120.709 36.04C120.709 34.2053 121.05 32.5947 121.733 31.208C122.437 29.8213 123.386 28.7547 124.581 28.008C125.775 27.2613 127.109 26.888 128.581 26.888C129.839 26.888 130.938 27.144 131.877 27.656C132.837 28.168 133.573 28.84 134.085 29.672V27.144H139.557V45H134.085V42.472C133.551 43.304 132.805 43.976 131.845 44.488C130.906 45 129.807 45.256 128.549 45.256C127.098 45.256 125.775 44.8827 124.581 44.136C123.386 43.368 122.437 42.2907 121.733 40.904C121.05 39.496 120.709 37.8747 120.709 36.04ZM134.085 36.072C134.085 34.7067 133.701 33.6293 132.933 32.84C132.186 32.0507 131.269 31.656 130.181 31.656C129.093 31.656 128.165 32.0507 127.397 32.84C126.65 33.608 126.277 34.6747 126.277 36.04C126.277 37.4053 126.65 38.4933 127.397 39.304C128.165 40.0933 129.093 40.488 130.181 40.488C131.269 40.488 132.186 40.0933 132.933 39.304C133.701 38.5147 134.085 37.4373 134.085 36.072ZM148.987 30.12C149.627 29.1387 150.427 28.3707 151.387 27.816C152.347 27.24 153.414 26.952 154.587 26.952V32.744H153.083C151.718 32.744 150.694 33.0427 150.011 33.64C149.329 34.216 148.987 35.24 148.987 36.712V45H143.515V27.144H148.987V30.12ZM156.115 36.04C156.115 34.2053 156.456 32.5947 157.139 31.208C157.843 29.8213 158.792 28.7547 159.987 28.008C161.181 27.2613 162.515 26.888 163.987 26.888C165.245 26.888 166.344 27.144 167.283 27.656C168.243 28.168 168.979 28.84 169.491 29.672V27.144H174.963V45H169.491V42.472C168.957 43.304 168.211 43.976 167.251 44.488C166.312 45 165.213 45.256 163.955 45.256C162.504 45.256 161.181 44.8827 159.987 44.136C158.792 43.368 157.843 42.2907 157.139 40.904C156.456 39.496 156.115 37.8747 156.115 36.04ZM169.491 36.072C169.491 34.7067 169.107 33.6293 168.339 32.84C167.592 32.0507 166.675 31.656 165.587 31.656C164.499 31.656 163.571 32.0507 162.803 32.84C162.056 33.608 161.683 34.6747 161.683 36.04C161.683 37.4053 162.056 38.4933 162.803 39.304C163.571 40.0933 164.499 40.488 165.587 40.488C166.675 40.488 167.592 40.0933 168.339 39.304C169.107 38.5147 169.491 37.4373 169.491 36.072Z" fill="#FFCA7B"/>
</svg>
